<svg xmlns="http://www.w3.org/2000/svg" version="1.1" width="792" height="228"><defs><filter id="bevelFilter" x0="-50%" y0="-50%" width="200%" height="200%"><feGaussianBlur result="blur-1" in="SourceAlpha" stdDeviation="1 1"/><feFlood result="flood-2" in="undefined" flood-color="#fff" flood-opacity="0.15"/><feOffset result="offset-3" in="blur-1" dx="1" dy="1"/><feComposite result="comp-4" operator="arithmetic" in="SourceAlpha" in2="offset-3" k2="1" k3="-1"/><feComposite result="comp-5" operator="in" in="flood-2" in2="comp-4"/><feFlood result="flood-6" in="undefined" flood-color="#000" flood-opacity="0.7"/><feOffset result="offset-7" in="blur-1" dx="-1" dy="-1"/><feComposite result="comp-8" operator="arithmetic" in="SourceAlpha" in2="offset-7" k2="1" k3="-1"/><feComposite result="comp-9" operator="in" in="flood-6" in2="comp-8"/><feMerge result="merge-10"><feMergeNode in="SourceGraphic"/><feMergeNode in="comp-5"/><feMergeNode in="comp-9"/></feMerge></filter><filter id="inputBevelFilter" x0="-50%" y0="-50%" width="200%" height="200%"><feGaussianBlur result="blur-1" in="SourceAlpha" stdDeviation="1 1"/><feFlood result="flood-2" in="undefined" flood-color="#fff" flood-opacity="0.15"/><feOffset result="offset-3" in="blur-1" dx="-1" dy="-1"/><feComposite result="comp-4" operator="arithmetic" in="SourceAlpha" in2="offset-3" k2="1" k3="-1"/><feComposite result="comp-5" operator="in" in="flood-2" in2="comp-4"/><feFlood result="flood-6" in="undefined" flood-color="#000" flood-opacity="0.7"/><feOffset result="offset-7" in="blur-1" dx="1" dy="1"/><feComposite result="comp-8" operator="arithmetic" in="SourceAlpha" in2="offset-7" k2="1" k3="-1"/><feComposite result="comp-9" operator="in" in="flood-6" in2="comp-8"/><feMerge result="merge-10"><feMergeNode in="SourceGraphic"/><feMergeNode in="comp-5"/><feMergeNode in="comp-9"/></feMerge></filter><filter id="inputDarkFilter" x0="-50%" y0="-50%" width="200%" height="200%"><feFlood result="flood-1" in="undefined" flood-color="#000" flood-opacity="0.2"/><feComposite result="comp-2" operator="in" in="flood-1" in2="SourceAlpha"/><feMerge result="merge-3"><feMergeNode in="SourceGraphic"/><feMergeNode in="comp-2"/></feMerge></filter><path d="M1.504 21L0 19.493 4.567 0h1.948l-.5 2.418s1.002-.502 3.006 0c2.006.503 3.008 2.01 6.517 2.01 3.508 0 4.463-.545 4.463-.545l-.823 9.892s-2.137 1.005-5.144.696c-3.007-.307-3.007-2.007-6.014-2.51-3.008-.502-4.512.503-4.512.503L1.504 21z" fill="#3f8d15" id="greenFlag"/><path d="M6.724 0C3.01 0 0 2.91 0 6.5c0 2.316 1.253 4.35 3.14 5.5H5.17v-1.256C3.364 10.126 2.07 8.46 2.07 6.5 2.07 4.015 4.152 2 6.723 2c1.14 0 2.184.396 2.993 1.053L8.31 4.13c-.45.344-.398.826.11 1.08L15 8.5 13.858.992c-.083-.547-.514-.714-.963-.37l-1.532 1.172A6.825 6.825 0 0 0 6.723 0z" fill="#fff" id="turnRight"/><path d="M3.637 1.794A6.825 6.825 0 0 1 8.277 0C11.99 0 15 2.91 15 6.5c0 2.316-1.253 4.35-3.14 5.5H9.83v-1.256c1.808-.618 3.103-2.285 3.103-4.244 0-2.485-2.083-4.5-4.654-4.5-1.14 0-2.184.396-2.993 1.053L6.69 4.13c.45.344.398.826-.11 1.08L0 8.5 1.142.992c.083-.547.514-.714.963-.37l1.532 1.172z" fill="#fff" id="turnLeft"/><path d="M0 0L4 4L0 8Z" fill="#111" id="addInput"/><path d="M4 0L4 8L0 4Z" fill="#111" id="delInput"/><g id="loopArrow"><path d="M8 0l2 -2l0 -3l3 0l-4 -5l-4 5l3 0l0 3l-8 0l0 2" fill="#000" opacity="0.3"/><path d="M8 0l2 -2l0 -3l3 0l-4 -5l-4 5l3 0l0 3l-8 0l0 2" fill="#fff" opacity="0.9" transform="translate(-1 -1)"/></g><style><![CDATA[.sb-label{font-family:Lucida Grande,Verdana,Arial,DejaVu Sans,sans-serif;font-weight:700;fill:#fff;font-size:10px;word-spacing:+1px}.sb-obsolete{fill:#d42828}.sb-motion{fill:#4a6cd4}.sb-looks{fill:#8a55d7}.sb-sound{fill:#bb42c3}.sb-pen{fill:#0e9a6c}.sb-events{fill:#c88330}.sb-control{fill:#e1a91a}.sb-sensing{fill:#2ca5e2}.sb-operators{fill:#5cb712}.sb-variables{fill:#ee7d16}.sb-list{fill:#cc5b22}.sb-custom{fill:#632d99}.sb-custom-arg{fill:#5947b1}.sb-extension{fill:#4b4a60}.sb-grey{fill:#969696}.sb-bevel{filter:url(#bevelFilter)}.sb-input{filter:url(#inputBevelFilter)}.sb-input-number,.sb-input-number-dropdown,.sb-input-string{fill:#fff}.sb-literal-dropdown,.sb-literal-number,.sb-literal-number-dropdown,.sb-literal-string{font-weight:400;font-size:9px;word-spacing:0}.sb-literal-number,.sb-literal-number-dropdown,.sb-literal-string{fill:#000}.sb-darker{filter:url(#inputDarkFilter)}.sb-outline{stroke:#fff;stroke-opacity:.2;stroke-width:2;fill:none}.sb-define-hat-cap{stroke:#632d99;stroke-width:1;fill:#8e2ec2}.sb-comment{fill:#ffffa5;stroke:#d0d1d2;stroke-width:1}.sb-comment-line{fill:#ffff80}.sb-comment-label{font-family:Helevetica,Arial,DejaVu Sans,sans-serif;font-weight:700;fill:#5c5d5f;word-spacing:0;font-size:12px}]]></style></defs><g><g transform="translate(0 0)"><g transform="translate(2 0)"><path d="M 0 12 L 0 12 A 80 80 0 0 1 80 10 L 97 10 L 100 13 L 100 35 L 97 38 L 27 38 L 24 41 L 16 41 L 13 38 L 3 38 L 0 35 Z" class="sb-events sb-bevel"/><text x="0" y="10" class="sb-label " transform="translate(6 18)">when</text><use a0:href="#greenFlag" xmlns:a0="http://www.w3.org/1999/xlink" transform="translate(36 12)"/><text x="0" y="10" class="sb-label " transform="translate(60 18)">clicked</text></g><g transform="translate(2 38)"><path d="M 0 3 L 3 0 L 13 0 L 16 3 L 24 3 L 27 0 L 80 0 L 83 3 L 83 19 L 80 22 L 42 22 L 39 25 L 31 25 L 28 22 L 17 22 L 15 24 L 15 172 L 17 174 L 80 174 L 83 177 L 83 187 L 80 190 L 3 190 L 0 187" class="sb-control sb-bevel"/><text x="0" y="10" class="sb-label " transform="translate(6 5)">forever</text><use a1:href="#loopArrow" xmlns:a1="http://www.w3.org/1999/xlink" transform="translate(68 187)"/><g transform="translate(15 22)"><g transform="translate(0 0)"><path d="M 0 3 L 3 0 L 13 0 L 16 3 L 24 3 L 27 0 L 143 0 L 146 3 L 146 27 L 143 30 L 42 30 L 39 33 L 31 33 L 28 30 L 17 30 L 15 32 L 15 134 L 17 136 L 143 136 L 146 139 L 146 149 L 143 152 L 27 152 L 24 155 L 16 155 L 13 152 L 3 152 L 0 149" class="sb-control sb-bevel"/><text x="0" y="10" class="sb-label " transform="translate(6 8)">if</text><g transform="translate(30 2)"><path d="M 12.5 0 L 97.5 0 110 12.5 L 110 12.5 97.5 25 L 12.5 25 0 12.5 L 0 12.5 12.5 0 Z" class="sb-operators sb-bevel"/><g transform="translate(9 2)"><path d="M 10 0 L 47 0 A 10 10 0 0 1 47 20 L 10 20 A 10 10 0 0 1 10 0 Z" class="sb-variables sb-bevel"/><text x="0" y="10" class="sb-label " transform="translate(8 4)">dlstance</text></g><text x="0" y="10" class="sb-label " transform="translate(70 6)">&gt;</text><g transform="translate(80 5)"><rect x="0" y="0" width="21" height="14" class="sb-input sb-input-string"/><text x="0" y="10" class="sb-label sb-literal-string" transform="translate(4 0)">160</text></g></g><g transform="translate(15 30)"><g transform="translate(0 0)"><path d="M 0 3 L 3 0 L 13 0 L 16 3 L 24 3 L 27 0 L 62 0 L 65 3 L 65 21 L 62 24 L 3 24 L 0 21 Z" class="sb-control sb-bevel"/><text x="0" y="10" class="sb-label " transform="translate(6 7)">stop</text><g transform="translate(31 6)"><rect x="0" y="0" width="28" height="14" class="sb-input sb-input-string"/><text x="0" y="10" class="sb-label sb-literal-string" transform="translate(4 0)">script</text></g></g><g transform="translate(0 24)"><path d="M 0 3 L 3 0 L 13 0 L 16 3 L 24 3 L 27 0 L 755 0 L 758 3 L 758 41 L 755 44 L 42 44 L 39 47 L 31 47 L 28 44 L 17 44 L 15 46 L 15 64 L 17 66 L 755 66 L 758 69 L 758 79 L 755 82 L 27 82 L 24 85 L 16 85 L 13 82 L 3 82 L 0 79" class="sb-control sb-bevel"/><text x="0" y="10" class="sb-label " transform="translate(6 15)">if</text><g transform="translate(30 2)"><path d="M 19.5 0 L 702.5 0 722 19.5 L 722 19.5 702.5 39 L 19.5 39 0 19.5 L 0 19.5 19.5 0 Z" class="sb-operators sb-bevel"/><g transform="translate(5 6)"><path d="M 12.5 0 L 103.5 0 116 12.5 L 116 12.5 103.5 25 L 12.5 25 0 12.5 L 0 12.5 12.5 0 Z" class="sb-operators sb-bevel"/><g transform="translate(9 2)"><path d="M 10 0 L 46 0 A 10 10 0 0 1 46 20 L 10 20 A 10 10 0 0 1 10 0 Z" class="sb-variables sb-bevel"/><text x="0" y="10" class="sb-label " transform="translate(8 4)">jumping</text></g><text x="0" y="10" class="sb-label " transform="translate(69 6)">=</text><g transform="translate(79 5)"><rect x="0" y="0" width="28" height="14" class="sb-input sb-input-string"/><text x="0" y="10" class="sb-label sb-literal-string" transform="translate(4 0)">False</text></g></g><text x="0" y="10" class="sb-label " transform="translate(125 13)">and</text><g transform="translate(147 2)"><path d="M 17 0 L 553 0 570 17 L 570 17 553 34 L 17 34 0 17 L 0 17 17 0 Z" class="sb-operators sb-bevel"/><g transform="translate(5 2)"><path d="M 14.5 0 L 251.5 0 266 14.5 L 266 14.5 251.5 29 L 14.5 29 0 14.5 L 0 14.5 14.5 0 Z" class="sb-operators sb-bevel"/><g transform="translate(9 4)"><path d="M 10 0 L 55 0 A 10 10 0 0 1 55 20 L 10 20 A 10 10 0 0 1 10 0 Z" class="sb-motion sb-bevel"/><text x="0" y="10" class="sb-label " transform="translate(8 4)">x</text><text x="0" y="10" class="sb-label " transform="translate(18 4)">position</text></g><text x="0" y="10" class="sb-label " transform="translate(78 8)">&gt;</text><g transform="translate(88 2)"><path d="M 12 0 L 156 0 A 12 12 0 0 1 156 24 L 12 24 A 12 12 0 0 1 12 0 Z" class="sb-operators sb-bevel"/><g transform="translate(4 2)"><path d="M 10 0 L 123 0 A 10 10 0 0 1 123 20 L 10 20 A 10 10 0 0 1 10 0 Z" class="sb-sensing sb-bevel"/><g transform="translate(5 3)"><g width="57" height="14" class="sb-input sb-input-dropdown"><rect x="0" y="0" width="57" height="14" class="sb-sensing sb-darker"/></g><text x="0" y="10" class="sb-label sb-literal-dropdown" transform="translate(4 0)">x position</text><polygon points="7 0 3.5 4 0 0" fill="#000" opacity="0.6" transform="translate(47 5)"/></g><text x="0" y="10" class="sb-label " transform="translate(66 4)">of</text><g transform="translate(80 3)"><g width="48" height="14" class="sb-input sb-input-dropdown"><rect x="0" y="0" width="48" height="14" class="sb-sensing sb-darker"/></g><text x="0" y="10" class="sb-label sb-literal-dropdown" transform="translate(4 0)">Sprite3</text><polygon points="7 0 3.5 4 0 0" fill="#000" opacity="0.6" transform="translate(38 5)"/></g></g><text x="0" y="10" class="sb-label " transform="translate(141 6)">-</text><g transform="translate(149 5)"><rect x="0" y="0" width="14" height="14" class="sb-input sb-input-string"/><text x="0" y="10" class="sb-label sb-literal-string" transform="translate(4 0)">5</text></g></g></g><text x="0" y="10" class="sb-label " transform="translate(275 10)">and</text><g transform="translate(297 2)"><path d="M 14.5 0 L 253.5 0 268 14.5 L 268 14.5 253.5 29 L 14.5 29 0 14.5 L 0 14.5 14.5 0 Z" class="sb-operators sb-bevel"/><g transform="translate(9 4)"><path d="M 10 0 L 55 0 A 10 10 0 0 1 55 20 L 10 20 A 10 10 0 0 1 10 0 Z" class="sb-motion sb-bevel"/><text x="0" y="10" class="sb-label " transform="translate(8 4)">x</text><text x="0" y="10" class="sb-label " transform="translate(18 4)">position</text></g><text x="0" y="10" class="sb-label " transform="translate(78 8)">&lt;</text><g transform="translate(88 2)"><path d="M 12 0 L 158 0 A 12 12 0 0 1 158 24 L 12 24 A 12 12 0 0 1 12 0 Z" class="sb-operators sb-bevel"/><g transform="translate(4 2)"><path d="M 10 0 L 123 0 A 10 10 0 0 1 123 20 L 10 20 A 10 10 0 0 1 10 0 Z" class="sb-sensing sb-bevel"/><g transform="translate(5 3)"><g width="57" height="14" class="sb-input sb-input-dropdown"><rect x="0" y="0" width="57" height="14" class="sb-sensing sb-darker"/></g><text x="0" y="10" class="sb-label sb-literal-dropdown" transform="translate(4 0)">x position</text><polygon points="7 0 3.5 4 0 0" fill="#000" opacity="0.6" transform="translate(47 5)"/></g><text x="0" y="10" class="sb-label " transform="translate(66 4)">of</text><g transform="translate(80 3)"><g width="48" height="14" class="sb-input sb-input-dropdown"><rect x="0" y="0" width="48" height="14" class="sb-sensing sb-darker"/></g><text x="0" y="10" class="sb-label sb-literal-dropdown" transform="translate(4 0)">Sprite3</text><polygon points="7 0 3.5 4 0 0" fill="#000" opacity="0.6" transform="translate(38 5)"/></g></g><text x="0" y="10" class="sb-label " transform="translate(141 6)">+</text><g transform="translate(151 5)"><rect x="0" y="0" width="14" height="14" class="sb-input sb-input-string"/><text x="0" y="10" class="sb-label sb-literal-string" transform="translate(4 0)">5</text></g></g></g></g></g><g transform="translate(15 44)"><g transform="translate(0 0)"><path d="M 0 3 L 3 0 L 13 0 L 16 3 L 24 3 L 27 0 L 109 0 L 112 3 L 112 19 L 109 22 L 27 22 L 24 25 L 16 25 L 13 22 L 3 22 L 0 19 Z" class="sb-variables sb-bevel"/><text x="0" y="10" class="sb-label " transform="translate(6 5)">set</text><g transform="translate(30 4)"><g width="44" height="14" class="sb-input sb-input-dropdown"><rect x="0" y="0" width="44" height="14" class="sb-variables sb-darker"/></g><text x="0" y="10" class="sb-label sb-literal-dropdown" transform="translate(4 0)">speed</text><polygon points="7 0 3.5 4 0 0" fill="#000" opacity="0.6" transform="translate(34 5)"/></g><text x="0" y="10" class="sb-label " transform="translate(78 5)">to</text><g transform="translate(92 4)"><rect x="0" y="0" width="14" height="14" class="sb-input sb-input-string"/><text x="0" y="10" class="sb-label sb-literal-string" transform="translate(4 0)">2</text></g></g></g></g></g></g></g></g></g></g></svg>
